<svg id="Layer_1" data-name="Layer 1" xmlns="http://www.w3.org/2000/svg" viewBox="0 0 28.12 40"><defs><style>.cls-1{fill:#fff;}</style></defs><title>Address</title><path class="cls-1" d="M19.26,0a14.07,14.07,0,0,0-12,21.46l11.16,18a1.17,1.17,0,0,0,1,.55h0a1.17,1.17,0,0,0,1-.57L31.34,21.27A14.07,14.07,0,0,0,19.26,0ZM29.33,20.06,19.44,36.58,9.29,20.22a11.73,11.73,0,1,1,20-.16Z" transform="translate(-5.2 0)"/><path class="cls-1" d="M19.26,7a7,7,0,1,0,7,7A7,7,0,0,0,19.26,7Zm0,11.73a4.7,4.7,0,1,1,4.7-4.7A4.71,4.71,0,0,1,19.26,18.77Z" transform="translate(-5.2 0)"/></svg>