<svg id="Layer_1" data-name="Layer 1" xmlns="http://www.w3.org/2000/svg" viewBox="0 0 40 40"><defs><style>.cls-1{fill:#fff;}</style></defs><title>Email</title><path class="cls-1" d="M19.92,0a20,20,0,0,0,0,40A20.19,20.19,0,0,0,40,19.92,20,20,0,0,0,19.92,0Zm0,37.67A17.67,17.67,0,1,1,37.67,19.92,17.7,17.7,0,0,1,19.92,37.67Z" transform="translate(0 0)"/><path class="cls-1" d="M19.92,7a13,13,0,0,0,0,25.94,13.36,13.36,0,0,0,8-2.66,1.17,1.17,0,1,0-1.43-1.86,11,11,0,0,1-6.57,2.19,10.64,10.64,0,1,1,10.7-10.72v1.17a2.34,2.34,0,0,1-4.69,0V15.23a1.17,1.17,0,0,0-2.34,0v.07a6,6,0,0,0-3.67-1.25,5.86,5.86,0,0,0,0,11.72,6.07,6.07,0,0,0,4.51-2A4.69,4.69,0,0,0,33,21.09V19.92A13,13,0,0,0,19.92,7Zm0,16.42a3.53,3.53,0,0,1,0-7.06,3.66,3.66,0,0,1,3.67,3.53A3.66,3.66,0,0,1,19.92,23.45Z" transform="translate(0 0)"/></svg>