<svg id="Layer_1" data-name="Layer 1" xmlns="http://www.w3.org/2000/svg" viewBox="0 0 40 40"><defs><style>.cls-1{fill:#fff;}</style></defs><title>Phone</title><path class="cls-1" d="M39,29.5l-5-5a3.52,3.52,0,0,0-5,0l-2.26,2.26a2.67,2.67,0,0,1-3.77,0L13.2,17a2.66,2.66,0,0,1,0-3.77L15.46,11a3.51,3.51,0,0,0,0-5l-5-5a3.52,3.52,0,0,0-5,0L3.71,2.82a12.69,12.69,0,0,0,0,17.93L19.23,36.28a12.67,12.67,0,0,0,17.93,0L39,34.48A3.52,3.52,0,0,0,39,29.5ZM7.17,2.69a1.17,1.17,0,0,1,1.66,0l5,5a1.17,1.17,0,0,1,0,1.66l-.83.83L6.35,3.5ZM20.89,34.63,5.37,19.09A10.3,10.3,0,0,1,4.72,5.19l6.61,6.61a5,5,0,0,0,.22,6.85l9.8,9.8h0a5,5,0,0,0,6.85.22l6.61,6.61A10.28,10.28,0,0,1,20.89,34.63Zm16.42-1.81-.83.83L29.85,27l.83-.83a1.17,1.17,0,0,1,1.66,0l5,5A1.17,1.17,0,0,1,37.31,32.82Z" transform="translate(0 0)"/></svg>