<svg id="Layer_1" data-name="Layer 1" xmlns="http://www.w3.org/2000/svg" viewBox="0 0 50 50.04"><defs><style>.cls-1{fill:#fff;}</style></defs><title>Instagram 01</title><path class="cls-1" d="M25,0C14.76,0,5-.91,1.32,8.63-.21,12.56,0,17.68,0,25c0,6.42-.21,12.46,1.31,16.37C5,50.9,14.83,50,25,50c9.81,0,19.92,1,23.68-8.62,1.54-4,1.31-9,1.31-16.37,0-9.76.54-16.07-4.2-20.8S34.51,0,25,0Zm-2.24,4.5c21.36,0,24.08-2.41,22.58,30.58C44.81,46.75,35.92,45.47,25,45.47,5.09,45.47,4.52,44.9,4.52,25,4.52,4.84,6.1,4.52,22.76,4.5ZM38.34,8.66a3,3,0,1,0,3,3A3,3,0,0,0,38.34,8.66ZM25,12.16A12.83,12.83,0,1,0,37.83,25,12.83,12.83,0,0,0,25,12.16Zm0,4.5c11,0,11,16.66,0,16.66S14,16.67,25,16.67Z" transform="translate(0 0.02)"/></svg>