<svg id="Layer_1" data-name="Layer 1" xmlns="http://www.w3.org/2000/svg" viewBox="0 0 50 47.78"><defs><style>.cls-1{fill:#fff;}</style></defs><title>Linkedin 01</title><path class="cls-1" d="M50,30.4V48.89H39.28V31.64c0-4.33-1.55-7.29-5.43-7.29a5.86,5.86,0,0,0-5.5,3.92A7.34,7.34,0,0,0,28,30.88v18H17.28s.14-29.21,0-32.24H28v4.57l-.07.11H28v-.11a10.64,10.64,0,0,1,9.66-5.33C44.71,15.89,50,20.5,50,30.4ZM6.07,1.11C2.4,1.11,0,3.52,0,6.68a5.55,5.55,0,0,0,5.93,5.57H6c3.74,0,6.06-2.48,6.06-5.57s-2.32-5.57-6-5.57ZM.64,48.89H11.35V16.65H.64Z" transform="translate(0 -1.11)"/></svg>