<svg xmlns="http://www.w3.org/2000/svg" viewBox="0 0 60 59.99"><defs><style>.cls-1{fill:#51b4e5;}</style></defs><title>Asset 1</title><g id="Layer_2" data-name="Layer 2"><g id="Layer_1-2" data-name="Layer 1"><path class="cls-1" d="M44,26.38a1.41,1.41,0,1,0-2.63,1,15.55,15.55,0,1,1-14.46-9.83,15.27,15.27,0,0,1,5.72,1.09,1.42,1.42,0,0,0,1.05-2.63,18.19,18.19,0,0,0-6.77-1.29A18.35,18.35,0,1,0,44,26.38Z"/><path class="cls-1" d="M52.68,25.73a1.42,1.42,0,0,0-2.73.78,23.79,23.79,0,0,1,.93,6.62A24,24,0,1,1,33.49,10a1.42,1.42,0,0,0,.78-2.73,27.17,27.17,0,0,0-7.41-1A26.86,26.86,0,1,0,53.71,33.13,27.15,27.15,0,0,0,52.68,25.73Z"/><path class="cls-1" d="M36.71,32.27a1.42,1.42,0,1,0-2.82.25c0,.2,0,.41,0,.61a7.07,7.07,0,1,1-7.06-7.06l.63,0a1.41,1.41,0,1,0,.26-2.81,8.7,8.7,0,0,0-.89,0,9.9,9.9,0,1,0,9.89,9.89A8.12,8.12,0,0,0,36.71,32.27Z"/><path class="cls-1" d="M59.78,9.52a2.82,2.82,0,0,0-2.61-1.75H52.23V2.83a2.83,2.83,0,0,0-4.83-2L39.15,9.08a4.22,4.22,0,0,0-1.24,3v8L26.4,31.59a1.42,1.42,0,0,0,1,2.42,1.41,1.41,0,0,0,1-.41L39.91,22.09h8a4.22,4.22,0,0,0,3-1.24l8.25-8.25A2.82,2.82,0,0,0,59.78,9.52Zm-19,2.56a1.43,1.43,0,0,1,.41-1L49.4,2.83V8.6l-8.66,8.66V12.08Zm8.18,6.77a1.43,1.43,0,0,1-1,.41H42.74L51.4,10.6h5.77Z"/></g></g></svg>